<svg width="423" height="40" viewBox="0 0 423 40" fill="none" xmlns="http://www.w3.org/2000/svg">
<rect x="0.5" y="0.5" width="31" height="31" rx="3.5" fill="white"/>
<rect x="0.5" y="0.5" width="31" height="31" rx="3.5" stroke="#E8E8E8"/>
<path d="M18.8982 11.9843V10.9275C18.8982 10.8359 18.7929 10.7853 18.7218 10.8413L12.5585 15.6552C12.5061 15.6959 12.4638 15.7481 12.4346 15.8077C12.4055 15.8673 12.3903 15.9327 12.3903 15.999C12.3903 16.0654 12.4055 16.1308 12.4346 16.1904C12.4638 16.25 12.5061 16.3022 12.5585 16.3429L18.7218 21.1568C18.7942 21.2128 18.8982 21.1622 18.8982 21.0706V20.0138C18.8982 19.9468 18.8667 19.8825 18.8148 19.8415L13.8929 15.9997L18.8148 12.1566C18.8667 12.1156 18.8982 12.0513 18.8982 11.9843Z" fill="#9292A3"/>
<g filter="url(#filter0_d_33_920)">
<rect x="40" width="33" height="32" rx="4" fill="white" shape-rendering="crispEdges"/>
<rect x="40.5" y="0.5" width="32" height="31" rx="3.5" stroke="#FF6428" shape-rendering="crispEdges"/>
<path d="M57.9242 21H56.5802V14.602H54.3822V13.636C54.9982 13.6267 55.5162 13.468 55.9362 13.16C56.3562 12.8427 56.6176 12.432 56.7202 11.928H57.9242V21Z" fill="#FF6428"/>
</g>
<path d="M85.125 15.9766C85.125 16.1489 85.1589 16.3196 85.2249 16.4788C85.2909 16.6381 85.3875 16.7828 85.5094 16.9046C85.6313 17.0265 85.776 17.1232 85.9352 17.1892C86.0945 17.2551 86.2651 17.2891 86.4375 17.2891C86.6099 17.2891 86.7805 17.2551 86.9398 17.1892C87.099 17.1232 87.2437 17.0265 87.3656 16.9046C87.4875 16.7828 87.5841 16.6381 87.6501 16.4788C87.7161 16.3196 87.75 16.1489 87.75 15.9766C87.75 15.8042 87.7161 15.6335 87.6501 15.4743C87.5841 15.3151 87.4875 15.1704 87.3656 15.0485C87.2437 14.9266 87.099 14.8299 86.9398 14.764C86.7805 14.698 86.6099 14.6641 86.4375 14.6641C86.2651 14.6641 86.0945 14.698 85.9352 14.764C85.776 14.8299 85.6313 14.9266 85.5094 15.0485C85.3875 15.1704 85.2909 15.3151 85.2249 15.4743C85.1589 15.6335 85.125 15.8042 85.125 15.9766ZM91.6875 15.9766C91.6875 16.3247 91.8258 16.6585 92.0719 16.9046C92.3181 17.1508 92.6519 17.2891 93 17.2891C93.3481 17.2891 93.6819 17.1508 93.9281 16.9046C94.1742 16.6585 94.3125 16.3247 94.3125 15.9766C94.3125 15.6285 94.1742 15.2946 93.9281 15.0485C93.6819 14.8023 93.3481 14.6641 93 14.6641C92.6519 14.6641 92.3181 14.8023 92.0719 15.0485C91.8258 15.2946 91.6875 15.6285 91.6875 15.9766ZM98.25 15.9766C98.25 16.3247 98.3883 16.6585 98.6344 16.9046C98.8806 17.1508 99.2144 17.2891 99.5625 17.2891C99.9106 17.2891 100.244 17.1508 100.491 16.9046C100.737 16.6585 100.875 16.3247 100.875 15.9766C100.875 15.6285 100.737 15.2946 100.491 15.0485C100.244 14.8023 99.9106 14.6641 99.5625 14.6641C99.2144 14.6641 98.8806 14.8023 98.6344 15.0485C98.3883 15.2946 98.25 15.6285 98.25 15.9766Z" fill="#8C8C8C"/>
<rect x="113.5" y="0.5" width="32" height="31" rx="3.5" fill="white"/>
<rect x="113.5" y="0.5" width="32" height="31" rx="3.5" stroke="#E8E8E8"/>
<path d="M125.97 18.956V17.374L129.862 11.928H131.752V17.682H133.306V18.956H131.752V21H130.422V18.956H125.97ZM130.422 17.682V13.244L127.23 17.682H130.422Z" fill="#9292A3"/>
<rect x="154.5" y="0.5" width="32" height="31" rx="3.5" fill="white"/>
<rect x="154.5" y="0.5" width="32" height="31" rx="3.5" stroke="#E8E8E8"/>
<path d="M166.655 18.536L167.971 18.144C168.008 18.704 168.214 19.1567 168.587 19.502C168.97 19.8473 169.446 20.02 170.015 20.02C170.566 20.02 171.028 19.852 171.401 19.516C171.774 19.18 171.961 18.7367 171.961 18.186C171.961 17.5887 171.774 17.1267 171.401 16.8C171.028 16.4733 170.561 16.31 170.001 16.31C169.32 16.31 168.769 16.5293 168.349 16.968C168.218 16.9213 168.004 16.8373 167.705 16.716C167.406 16.5947 167.173 16.5013 167.005 16.436L168.181 11.928H172.969V13.188H169.091L168.419 15.792C168.82 15.344 169.436 15.12 170.267 15.12C171.172 15.12 171.91 15.3907 172.479 15.932C173.058 16.4733 173.347 17.206 173.347 18.13C173.347 19.0073 173.039 19.7447 172.423 20.342C171.807 20.93 171.004 21.224 170.015 21.224C169.082 21.224 168.302 20.9627 167.677 20.44C167.061 19.9173 166.72 19.2827 166.655 18.536Z" fill="#9292A3"/>
<rect x="195.5" y="0.5" width="32" height="31" rx="3.5" fill="white"/>
<rect x="195.5" y="0.5" width="32" height="31" rx="3.5" stroke="#E8E8E8"/>
<path d="M214.789 12.222L214.369 13.342C213.921 13.0807 213.38 12.95 212.745 12.95C211.821 12.95 211.07 13.2533 210.491 13.86C209.922 14.4667 209.609 15.246 209.553 16.198C209.759 15.862 210.067 15.582 210.477 15.358C210.897 15.134 211.387 15.022 211.947 15.022C212.871 15.022 213.618 15.2973 214.187 15.848C214.766 16.3987 215.055 17.1547 215.055 18.116C215.055 19.0587 214.729 19.81 214.075 20.37C213.422 20.93 212.629 21.21 211.695 21.21C210.725 21.21 209.889 20.86 209.189 20.16C208.499 19.4507 208.153 18.4007 208.153 17.01C208.153 15.3673 208.592 14.0747 209.469 13.132C210.347 12.1893 211.467 11.718 212.829 11.718C213.66 11.718 214.313 11.886 214.789 12.222ZM209.749 18.116C209.749 18.6853 209.945 19.1473 210.337 19.502C210.729 19.8473 211.187 20.02 211.709 20.02C212.26 20.02 212.722 19.8473 213.095 19.502C213.478 19.1567 213.669 18.6947 213.669 18.116C213.669 17.528 213.478 17.0613 213.095 16.716C212.722 16.3707 212.26 16.198 211.709 16.198C211.159 16.198 210.692 16.3707 210.309 16.716C209.936 17.0613 209.749 17.528 209.749 18.116Z" fill="#9292A3"/>
<rect x="236.5" y="0.5" width="32" height="31" rx="3.5" fill="white"/>
<rect x="236.5" y="0.5" width="32" height="31" rx="3.5" stroke="#E8E8E8"/>
<path d="M255.808 11.928V13.244C255.575 13.4307 255.346 13.6313 255.122 13.846C254.898 14.0607 254.6 14.406 254.226 14.882C253.862 15.358 253.54 15.862 253.26 16.394C252.98 16.926 252.714 17.6027 252.462 18.424C252.22 19.236 252.056 20.0947 251.972 21H250.558C250.614 20.2813 250.726 19.586 250.894 18.914C251.062 18.2327 251.258 17.64 251.482 17.136C251.706 16.632 251.944 16.1607 252.196 15.722C252.458 15.274 252.71 14.9007 252.952 14.602C253.204 14.294 253.428 14.0327 253.624 13.818C253.83 13.6033 253.993 13.4447 254.114 13.342L254.296 13.188H249.186V11.928H255.808Z" fill="#9292A3"/>
<rect x="277.5" y="0.5" width="32" height="31" rx="3.5" fill="white"/>
<rect x="277.5" y="0.5" width="32" height="31" rx="3.5" stroke="#E8E8E8"/>
<path d="M293.003 15.792C293.488 15.7827 293.89 15.6427 294.207 15.372C294.524 15.1013 294.683 14.7467 294.683 14.308C294.683 13.8973 294.529 13.552 294.221 13.272C293.913 12.992 293.507 12.852 293.003 12.852C292.499 12.852 292.093 12.992 291.785 13.272C291.477 13.552 291.323 13.8973 291.323 14.308C291.323 14.7467 291.482 15.1013 291.799 15.372C292.116 15.6427 292.518 15.7827 293.003 15.792ZM291.603 19.586C291.948 19.8753 292.415 20.02 293.003 20.02C293.591 20.02 294.053 19.8753 294.389 19.586C294.734 19.2967 294.907 18.9327 294.907 18.494C294.907 18.046 294.734 17.6773 294.389 17.388C294.053 17.0893 293.591 16.94 293.003 16.94C292.415 16.94 291.948 17.0893 291.603 17.388C291.267 17.6773 291.099 18.046 291.099 18.494C291.099 18.9327 291.267 19.2967 291.603 19.586ZM295.411 20.482C294.823 20.9673 294.02 21.21 293.003 21.21C291.986 21.21 291.183 20.9673 290.595 20.482C290.007 19.9873 289.713 19.362 289.713 18.606C289.713 18.074 289.872 17.612 290.189 17.22C290.516 16.8187 290.931 16.534 291.435 16.366C291.006 16.2073 290.651 15.9367 290.371 15.554C290.091 15.162 289.951 14.7233 289.951 14.238C289.951 13.5007 290.24 12.8987 290.819 12.432C291.398 11.956 292.126 11.718 293.003 11.718C293.88 11.718 294.608 11.956 295.187 12.432C295.766 12.8987 296.055 13.5007 296.055 14.238C296.055 14.714 295.915 15.148 295.635 15.54C295.355 15.932 295 16.2073 294.571 16.366C295.075 16.5247 295.486 16.8047 295.803 17.206C296.13 17.6073 296.293 18.074 296.293 18.606C296.293 19.362 295.999 19.9873 295.411 20.482Z" fill="#9292A3"/>
<path d="M322.125 15.9766C322.125 16.1489 322.159 16.3196 322.225 16.4788C322.291 16.6381 322.388 16.7828 322.509 16.9046C322.631 17.0265 322.776 17.1232 322.935 17.1892C323.094 17.2551 323.265 17.2891 323.438 17.2891C323.61 17.2891 323.781 17.2551 323.94 17.1892C324.099 17.1232 324.244 17.0265 324.366 16.9046C324.487 16.7828 324.584 16.6381 324.65 16.4788C324.716 16.3196 324.75 16.1489 324.75 15.9766C324.75 15.8042 324.716 15.6335 324.65 15.4743C324.584 15.3151 324.487 15.1704 324.366 15.0485C324.244 14.9266 324.099 14.8299 323.94 14.764C323.781 14.698 323.61 14.6641 323.438 14.6641C323.265 14.6641 323.094 14.698 322.935 14.764C322.776 14.8299 322.631 14.9266 322.509 15.0485C322.388 15.1704 322.291 15.3151 322.225 15.4743C322.159 15.6335 322.125 15.8042 322.125 15.9766ZM328.688 15.9766C328.688 16.3247 328.826 16.6585 329.072 16.9046C329.318 17.1508 329.652 17.2891 330 17.2891C330.348 17.2891 330.682 17.1508 330.928 16.9046C331.174 16.6585 331.312 16.3247 331.312 15.9766C331.312 15.6285 331.174 15.2946 330.928 15.0485C330.682 14.8023 330.348 14.6641 330 14.6641C329.652 14.6641 329.318 14.8023 329.072 15.0485C328.826 15.2946 328.688 15.6285 328.688 15.9766ZM335.25 15.9766C335.25 16.3247 335.388 16.6585 335.634 16.9046C335.881 17.1508 336.214 17.2891 336.562 17.2891C336.911 17.2891 337.244 17.1508 337.491 16.9046C337.737 16.6585 337.875 16.3247 337.875 15.9766C337.875 15.6285 337.737 15.2946 337.491 15.0485C337.244 14.8023 336.911 14.6641 336.562 14.6641C336.214 14.6641 335.881 14.8023 335.634 15.0485C335.388 15.2946 335.25 15.6285 335.25 15.9766Z" fill="#8C8C8C"/>
<rect x="350.5" y="0.5" width="32" height="31" rx="3.5" fill="white"/>
<rect x="350.5" y="0.5" width="32" height="31" rx="3.5" stroke="#E8E8E8"/>
<path d="M358.855 18.536L360.171 18.144C360.209 18.704 360.414 19.1567 360.787 19.502C361.17 19.8473 361.646 20.02 362.215 20.02C362.766 20.02 363.228 19.852 363.601 19.516C363.975 19.18 364.161 18.7367 364.161 18.186C364.161 17.5887 363.975 17.1267 363.601 16.8C363.228 16.4733 362.761 16.31 362.201 16.31C361.52 16.31 360.969 16.5293 360.549 16.968C360.419 16.9213 360.204 16.8373 359.905 16.716C359.607 16.5947 359.373 16.5013 359.205 16.436L360.381 11.928H365.169V13.188H361.291L360.619 15.792C361.021 15.344 361.637 15.12 362.467 15.12C363.373 15.12 364.11 15.3907 364.679 15.932C365.258 16.4733 365.547 17.206 365.547 18.13C365.547 19.0073 365.239 19.7447 364.623 20.342C364.007 20.93 363.205 21.224 362.215 21.224C361.282 21.224 360.503 20.9627 359.877 20.44C359.261 19.9173 358.921 19.2827 358.855 18.536ZM368.891 13.524C368.359 14.084 368.093 15.064 368.093 16.464C368.093 17.864 368.359 18.844 368.891 19.404C369.264 19.796 369.745 19.992 370.333 19.992C370.921 19.992 371.402 19.796 371.775 19.404C372.307 18.844 372.573 17.864 372.573 16.464C372.573 15.064 372.307 14.084 371.775 13.524C371.402 13.132 370.921 12.936 370.333 12.936C369.745 12.936 369.264 13.132 368.891 13.524ZM367.547 19.754C367.006 18.9513 366.735 17.8547 366.735 16.464C366.735 15.0733 367.006 13.9767 367.547 13.174C368.191 12.2033 369.12 11.718 370.333 11.718C371.546 11.718 372.475 12.2033 373.119 13.174C373.66 13.9767 373.931 15.0733 373.931 16.464C373.931 17.8547 373.66 18.9513 373.119 19.754C372.475 20.7247 371.546 21.21 370.333 21.21C369.12 21.21 368.191 20.7247 367.547 19.754Z" fill="#9292A3"/>
<rect x="391.5" y="0.5" width="31" height="31" rx="3.5" fill="white"/>
<rect x="391.5" y="0.5" width="31" height="31" rx="3.5" stroke="#E8E8E8"/>
<path d="M410.469 15.6555L404.305 10.8416C404.289 10.8289 404.27 10.821 404.249 10.8189C404.229 10.8167 404.208 10.8203 404.19 10.8293C404.172 10.8383 404.156 10.8523 404.145 10.8697C404.134 10.8871 404.129 10.9072 404.129 10.9277V11.9846C404.129 12.0515 404.16 12.1158 404.212 12.1568L409.134 16L404.212 19.8432C404.159 19.8842 404.129 19.9484 404.129 20.0154V21.0723C404.129 21.1639 404.234 21.2144 404.305 21.1584L410.469 16.3445C410.521 16.3037 410.563 16.2514 410.592 16.1917C410.622 16.132 410.637 16.0664 410.637 16C410.637 15.9335 410.622 15.868 410.592 15.8083C410.563 15.7486 410.521 15.6963 410.469 15.6555Z" fill="#9292A3"/>
<defs>
<filter id="filter0_d_33_920" x="36" y="0" width="41" height="40" filterUnits="userSpaceOnUse" color-interpolation-filters="sRGB">
<feFlood flood-opacity="0" result="BackgroundImageFix"/>
<feColorMatrix in="SourceAlpha" type="matrix" values="0 0 0 0 0 0 0 0 0 0 0 0 0 0 0 0 0 0 127 0" result="hardAlpha"/>
<feOffset dy="4"/>
<feGaussianBlur stdDeviation="2"/>
<feComposite in2="hardAlpha" operator="out"/>
<feColorMatrix type="matrix" values="0 0 0 0 0 0 0 0 0 0 0 0 0 0 0 0 0 0 0.25 0"/>
<feBlend mode="normal" in2="BackgroundImageFix" result="effect1_dropShadow_33_920"/>
<feBlend mode="normal" in="SourceGraphic" in2="effect1_dropShadow_33_920" result="shape"/>
</filter>
</defs>
</svg>
