<svg width="26" height="26" viewBox="0 0 26 26" fill="none" xmlns="http://www.w3.org/2000/svg">
<path d="M25.5043 23.3103L17.5114 15.3174C18.7517 13.7139 19.4227 11.7533 19.4227 9.69122C19.4227 7.22286 18.4593 4.90839 16.7173 3.1633C14.9753 1.41821 12.6547 0.457947 10.1894 0.457947C7.72411 0.457947 5.40348 1.42128 3.66147 3.1633C1.91638 4.90531 0.956116 7.22286 0.956116 9.69122C0.956116 12.1565 1.91945 14.4771 3.66147 16.2191C5.40348 17.9642 7.72103 18.9245 10.1894 18.9245C12.2515 18.9245 14.2089 18.2535 15.8125 17.0163L23.8054 25.0061C23.8288 25.0296 23.8567 25.0482 23.8873 25.0609C23.9179 25.0736 23.9507 25.0801 23.9839 25.0801C24.0171 25.0801 24.0499 25.0736 24.0805 25.0609C24.1111 25.0482 24.139 25.0296 24.1624 25.0061L25.5043 23.6673C25.5278 23.6439 25.5464 23.6161 25.5591 23.5854C25.5718 23.5548 25.5783 23.522 25.5783 23.4888C25.5783 23.4557 25.5718 23.4228 25.5591 23.3922C25.5464 23.3616 25.5278 23.3337 25.5043 23.3103V23.3103ZM15.0646 14.5664C13.7596 15.8683 12.0299 16.5854 10.1894 16.5854C8.34889 16.5854 6.61919 15.8683 5.31422 14.5664C4.01233 13.2614 3.29521 11.5317 3.29521 9.69122C3.29521 7.85072 4.01233 6.11794 5.31422 4.81605C6.61919 3.51416 8.34889 2.79704 10.1894 2.79704C12.0299 2.79704 13.7627 3.51108 15.0646 4.81605C16.3665 6.12102 17.0836 7.85072 17.0836 9.69122C17.0836 11.5317 16.3665 13.2645 15.0646 14.5664Z" fill="#BFBFBF"/>
</svg>
