<svg width="7" height="12" viewBox="0 0 7 12" fill="none" xmlns="http://www.w3.org/2000/svg">
<path d="M6.89817 1.98426V0.927421C6.89817 0.83582 6.79289 0.785234 6.7218 0.841289L0.558519 5.65516C0.506153 5.69588 0.463781 5.74802 0.434634 5.80762C0.405487 5.86721 0.390335 5.93267 0.390335 5.999C0.390335 6.06534 0.405487 6.1308 0.434634 6.19039C0.463781 6.24998 0.506153 6.30213 0.558519 6.34285L6.7218 11.1567C6.79426 11.2128 6.89817 11.1622 6.89817 11.0706V10.0137C6.89817 9.94676 6.86672 9.8825 6.81477 9.84148L1.89289 5.99969L6.81477 2.15652C6.86672 2.11551 6.89817 2.05125 6.89817 1.98426Z" fill="#9292A3"/>
</svg>
